<svg height="480pt" viewBox="0 -88 480 480" width="480pt" xmlns="http://www.w3.org/2000/svg"><path d="m464 0h-448c-8.839844 0-16 7.160156-16 16v272c0 8.839844 7.160156 16 16 16h448c8.839844 0 16-7.160156 16-16v-272c0-8.839844-7.160156-16-16-16zm0 0" fill="#2d4d83"/><path d="m0 16v227.335938c43.679688 18.207031 94.160156 28.664062 148 28.664062 165.6875 0 300-98.496094 300-220 0-17.921875-2.992188-35.320312-8.503906-52h-423.496094c-8.839844 0-16 7.160156-16 16zm0 0" fill="#4472b2"/><path d="m176 88h128v128h-128zm0 0" fill="#b8cbd9"/><path d="m416 32h64v64h-64zm0 0" fill="#b8cbd9"/><path d="m416 208h64v64h-64zm0 0" fill="#b8cbd9"/><path d="m32 32h32v48h-32zm0 0" fill="#b8cbd9"/><path d="m32 224h32v48h-32zm0 0" fill="#b8cbd9"/><g fill="#fff"><path d="m184 48h16v40h-16zm0 0"/><path d="m216 48h16v40h-16zm0 0"/><path d="m248 48h16v40h-16zm0 0"/><path d="m280 48h16v40h-16zm0 0"/><path d="m304 96h40v16h-40zm0 0"/><path d="m304 128h40v16h-40zm0 0"/><path d="m304 160h40v16h-40zm0 0"/><path d="m304 192h40v16h-40zm0 0"/><path d="m136 96h40v16h-40zm0 0"/><path d="m136 128h40v16h-40zm0 0"/><path d="m136 160h40v16h-40zm0 0"/><path d="m136 192h40v16h-40zm0 0"/><path d="m184 216h16v40h-16zm0 0"/><path d="m216 216h16v40h-16zm0 0"/><path d="m248 216h16v40h-16zm0 0"/><path d="m280 216h16v40h-16zm0 0"/><path d="m216 144h-16v-24c0-4.414062 3.585938-8 8-8h24v16h-16zm0 0"/><path d="m272 192h-24v-16h16v-16h16v24c0 4.425781-3.585938 8-8 8zm0 0"/><path d="m40 80h16v144h-16zm0 0"/><path d="m440 72h16v160h-16zm0 0"/><path d="m88 24h16v16h-16zm0 0"/><path d="m104 40h16v16h-16zm0 0"/><path d="m88 56h16v16h-16zm0 0"/><path d="m104 72h16v16h-16zm0 0"/><path d="m88 88h16v16h-16zm0 0"/><path d="m104 104h16v16h-16zm0 0"/><path d="m88 120h16v16h-16zm0 0"/><path d="m104 136h16v16h-16zm0 0"/><path d="m88 152h16v16h-16zm0 0"/><path d="m104 168h16v16h-16zm0 0"/><path d="m88 184h16v16h-16zm0 0"/><path d="m104 200h16v16h-16zm0 0"/><path d="m88 216h16v16h-16zm0 0"/><path d="m104 232h16v16h-16zm0 0"/><path d="m88 248h16v16h-16zm0 0"/><path d="m104 264h16v16h-16zm0 0"/><path d="m360 24h16v16h-16zm0 0"/><path d="m376 40h16v16h-16zm0 0"/><path d="m360 56h16v16h-16zm0 0"/><path d="m376 72h16v16h-16zm0 0"/><path d="m360 88h16v16h-16zm0 0"/><path d="m376 104h16v16h-16zm0 0"/><path d="m360 120h16v16h-16zm0 0"/><path d="m376 136h16v16h-16zm0 0"/><path d="m360 152h16v16h-16zm0 0"/><path d="m376 168h16v16h-16zm0 0"/><path d="m360 184h16v16h-16zm0 0"/><path d="m376 200h16v16h-16zm0 0"/><path d="m360 216h16v16h-16zm0 0"/><path d="m376 232h16v16h-16zm0 0"/><path d="m360 248h16v16h-16zm0 0"/><path d="m376 264h16v16h-16zm0 0"/></g></svg>